<svg id="레이어_1" data-name="레이어 1" xmlns="http://www.w3.org/2000/svg" viewBox="0 0 579.66 502"><defs><style>.cls-1{fill:#dee5e1;}</style></defs><title>creative</title><polygon class="cls-1" points="434.75 0 144.91 0 0 251 144.91 502 434.75 502 579.66 251 434.75 0"/><g id="Layer_1" data-name="Layer 1"><path d="M620.16,432.87l-30.25-10a140,140,0,0,0-5.06-18.93l21.25-23.82L604,375.84a172,172,0,0,0-12.37-21.37L589,350.56,557.89,357A144.53,144.53,0,0,0,544,343.08l6.46-31.1-3.91-2.66A170.3,170.3,0,0,0,525.11,297l-4.26-2.06L497,316.13a141.58,141.58,0,0,0-18.93-5.06l-10-30.25-4.73-.35a173.4,173.4,0,0,0-24.76,0l-4.73.34-10,30.26A141.58,141.58,0,0,0,405,316.13l-23.82-21.24L376.87,297a171.77,171.77,0,0,0-21.37,12.37L351.59,312l6.47,31.1A143.41,143.41,0,0,0,344.11,357L313,350.56l-2.67,3.92A170.23,170.23,0,0,0,298,375.87l-2.07,4.26,21.23,23.81a141.54,141.54,0,0,0-5,18.93l-30.26,10-.34,4.73c-.3,4.1-.5,8.21-.5,12.38s.2,8.28.5,12.38l.34,4.72,30.25,10A140.38,140.38,0,0,0,317.15,496L295.9,519.84l2.08,4.27a169.3,169.3,0,0,0,12.37,21.37L313,549.4l31.1-6.47a144.43,144.43,0,0,0,13.94,13.94L351.59,588l3.91,2.66A170.3,170.3,0,0,0,376.89,603l4.26,2.06L405,583.84a140.78,140.78,0,0,0,18.93,5.06l10,30.25,4.73.34c4.09.29,8.2.49,12.37.49s8.28-.2,12.38-.5l4.73-.34,10-30.25A140,140,0,0,0,497,583.83l23.82,21.25,4.27-2.08a170.52,170.52,0,0,0,21.37-12.37l3.92-2.66L544,556.87a144.43,144.43,0,0,0,13.94-13.94L589,549.39l2.66-3.91A170.3,170.3,0,0,0,604,524.09l2.06-4.26L584.85,496a142,142,0,0,0,5-18.93l30.26-10,.34-4.72c.3-4.1.5-8.21.5-12.38s-.2-8.28-.5-12.38Zm-13.5,23.75-29.29,9.69-.69,4.24a126.1,126.1,0,0,1-6.55,24.53l-1.52,4,20.53,23c-2,3.9-4.26,7.73-6.63,11.46l-30.08-6.27-2.72,3.33a128.91,128.91,0,0,1-18.06,18.05l-3.33,2.72,6.27,30.08Q529,585,523.14,588.13l-23-20.54-4,1.53a127.1,127.1,0,0,1-24.53,6.55l-4.24.69-9.68,29.29c-4.4.22-8.9.22-13.3,0l-9.68-29.29-4.24-.69a126.46,126.46,0,0,1-24.53-6.56l-4-1.52-23,20.53c-3.89-2-7.73-4.25-11.45-6.63l6.26-30.08-3.33-2.72a129.38,129.38,0,0,1-18.05-18.05l-2.72-3.33-30.08,6.27q-3.56-5.58-6.64-11.46l20.54-23-1.53-4a126.79,126.79,0,0,1-6.54-24.52l-.7-4.24-29.28-9.69c-.09-2.19-.15-4.41-.15-6.64s.06-4.45.17-6.65l29.29-9.68.69-4.24a125.44,125.44,0,0,1,6.55-24.52l1.53-4-20.54-23c2-3.89,4.26-7.72,6.63-11.45l30.08,6.26,2.72-3.33a129.38,129.38,0,0,1,18.06-18l3.33-2.72-6.27-30.09q5.58-3.54,11.45-6.63l23,20.53,4-1.52a126.82,126.82,0,0,1,24.53-6.55l4.24-.69,9.68-29.29c4.4-.22,8.9-.22,13.3,0l9.68,29.29,4.24.69a125.72,125.72,0,0,1,24.53,6.55l4,1.53,23-20.54c3.89,2,7.73,4.26,11.45,6.63l-6.26,30.09,3.33,2.72a129.38,129.38,0,0,1,18.05,18.05l2.72,3.33,30.08-6.27q3.56,5.58,6.64,11.45l-20.54,23,1.53,4a126.79,126.79,0,0,1,6.54,24.52l.7,4.24,29.28,9.68c.09,2.2.15,4.42.15,6.65S606.77,454.43,606.66,456.62Z" transform="translate(-161.17 -199)"/><path d="M448.94,350.84c-36.76,1-67.59,31.79-68.73,68.55a70.47,70.47,0,0,0,24.42,55.73,51,51,0,0,1,18,38.61v35.42h21.25v14.16h14.16V549.15h21.25v-35.9c0-14.17,6.71-28.19,18.41-38.45a70.8,70.8,0,0,0-48.8-124ZM465.17,535H436.83V520.81h28.34Zm23.23-70.83c-12.89,11.31-21,26.39-22.83,42.5h-7.49V438.74l19.18-19.17-10-10L451,425.8l-16.24-16.25-10,10,19.18,19.17v67.91h-7.44a65.46,65.46,0,0,0-22.58-42.24,56.37,56.37,0,0,1-19.54-44.59c.92-29.39,25.57-54,55-54.81a56.65,56.65,0,0,1,58.33,56.64A56.56,56.56,0,0,1,488.4,464.15Z" transform="translate(-161.17 -199)"/></g></svg>