<svg id="레이어_1" data-name="레이어 1" xmlns="http://www.w3.org/2000/svg" viewBox="0 0 579.66 502"><defs><style>.cls-1{fill:#dee5e1;}</style></defs><title>designIcon</title><polygon class="cls-1" points="434.75 0 144.91 0 0 251 144.91 502 434.75 502 579.66 251 434.75 0"/><path d="M587.23,386.37a7.58,7.58,0,0,0-7.37-5.9H562.6a107.44,107.44,0,0,0-12.83-30.67l1.63-1.62,10.76-10.76a7,7,0,0,0,.74-9.15,138.27,138.27,0,0,0-31.85-31.7,7,7,0,0,0-9.15.88c-2.21,2.21-4.42,4.57-6.78,6.79l-5.6,5.6a110.52,110.52,0,0,0-30.82-12.68v-17.4a6.87,6.87,0,0,0-5.9-6.93,137.3,137.3,0,0,0-43.95,0A7.07,7.07,0,0,0,423,280.2v17.11A114.08,114.08,0,0,0,392.14,310l-5.61-5.61c-2.21-2.21-4.57-4.42-6.78-6.78a7.15,7.15,0,0,0-9.14-.88,136.81,136.81,0,0,0-31.71,31.55,7.16,7.16,0,0,0,.74,9.15c3.69,3.53,7.22,7.22,10.76,10.76L352,349.8a116.37,116.37,0,0,0-12.83,30.67H321.5a6.88,6.88,0,0,0-6.93,6,149.35,149.35,0,0,0-1.77,22.42,142,142,0,0,0,1.77,22.41,7.38,7.38,0,0,0,6.78,5.9h17.7a114.13,114.13,0,0,0,13,31c-3.69,3.68-7.38,7.22-11.06,11.06a20,20,0,0,0-1.63,1.76,6.91,6.91,0,0,0-.44,8.71,139.61,139.61,0,0,0,31.71,31.41c2.8,2.06,7.07,1.32,9.58-1.33s4.87-4.87,7.23-7.38c1.62-1.47,3.09-3.09,4.57-4.57,1.33.74,2.65,1.63,4.13,2.36a7.06,7.06,0,0,0,6.78-12.38,63.51,63.51,0,0,1-8-4.87,7.08,7.08,0,0,0-8.55.59l-1.18.88-.45.45c-2.36,2.5-4.86,5-7.37,7.52L373.85,506a121.36,121.36,0,0,1-19.91-19.91c3.54-3.69,7.23-7.23,11.06-10.91a12.67,12.67,0,0,0,1.92-2.22,6.88,6.88,0,0,0,0-7.81,99.58,99.58,0,0,1-15.19-36.57,7.11,7.11,0,0,0-6.93-5.75h-17a113.85,113.85,0,0,1-.74-14.16,118,118,0,0,1,.89-14.3c4.87,0,9.73,0,14.45.14A12.05,12.05,0,0,0,347,394a6.82,6.82,0,0,0,5-5.45,98,98,0,0,1,14.89-35.84,7.22,7.22,0,0,0,.15-7.67,13,13,0,0,0-2.95-3.39l-.44-.44-3.1-3.1c-2.21-2.21-4.28-4.42-6.49-6.49a118.29,118.29,0,0,1,20.2-20.05l2.51,2.51c2.65,2.65,5.31,5.16,7.67,7.66a10.83,10.83,0,0,0,4.72,3.25,7.42,7.42,0,0,0,6.34-.74,101.16,101.16,0,0,1,36-14.75,7,7,0,0,0,5.46-5.3,8.91,8.91,0,0,0,.29-3.54,65.41,65.41,0,0,1,0-7.67v-7.82a123.47,123.47,0,0,1,27.58,0v7.67c0,2.51,0,5-.15,8a11.71,11.71,0,0,0,.44,3.25,7.17,7.17,0,0,0,5.46,5.31,98.3,98.3,0,0,1,36,14.74,7.36,7.36,0,0,0,6.34.74,11.46,11.46,0,0,0,4.57-3.1c2.51-2.65,5.16-5.3,7.82-7.81l2.5-2.51A123.73,123.73,0,0,1,548,331.52L541.52,338l-3.1,3.09-.44.44a29.82,29.82,0,0,0-3,3.4,7.17,7.17,0,0,0,.15,7.66,98.13,98.13,0,0,1,14.89,35.84,7.26,7.26,0,0,0,5,5.45,10.9,10.9,0,0,0,4.28.45c4.87-.15,9.73-.15,14.6-.15a116.11,116.11,0,0,1,.74,14.3c0,4.72-.3,9.59-.74,14.16H557a7.09,7.09,0,0,0-6.93,5.75A103,103,0,0,1,534.88,465a6.9,6.9,0,0,0,0,7.82A12.08,12.08,0,0,0,536.8,475c3.68,3.54,7.22,7.22,10.91,10.91a127.08,127.08,0,0,1-19.91,19.91l-4-4c-2.36-2.36-4.72-4.57-6.93-6.93l-.44-.45-1.33-1a6.87,6.87,0,0,0-8.4-.44,72.06,72.06,0,0,1-8,4.72,7.06,7.06,0,0,0,6.79,12.39c1.47-.74,2.8-1.63,4.27-2.36l4.13,4.12c2.66,2.66,5.16,5.17,7.67,7.82a15.53,15.53,0,0,0,1.62,1.48,7.48,7.48,0,0,0,4,1.17,6.92,6.92,0,0,0,4.13-1.32A135.79,135.79,0,0,0,562.9,489.6a6.89,6.89,0,0,0-.44-8.7,21.67,21.67,0,0,0-1.77-1.92c-3.69-3.69-7.23-7.37-10.92-10.91a115.87,115.87,0,0,0,13-31H580.3a7.1,7.1,0,0,0,6.93-5.9,142.82,142.82,0,0,0,0-44.83Z" transform="translate(-161.17 -199)"/><path d="M483.71,456.57a11.27,11.27,0,0,0-1.33-5.31l-21.23-40.11a9.08,9.08,0,0,0-1.92-2.51,10.83,10.83,0,0,0-8-3.39,10.3,10.3,0,0,0-8,3.1,10.84,10.84,0,0,0-2.22,2.94L419.86,451.4a10.9,10.9,0,0,0-1.33,5.31l-.59,148.2a24.06,24.06,0,0,0,23.3,24.34l10.18.29,9.73-.29a24.06,24.06,0,0,0,23.3-24.34ZM451,422.21l15.34,28.9H435.79Zm9.44,192.73-9.29.3-9.73-.3a10,10,0,0,1-9.73-10.17l.59-139.65h37.16L470,604.77A10,10,0,0,1,460.41,614.94Z" transform="translate(-161.17 -199)"/></svg>