<svg id="레이어_1" data-name="레이어 1" xmlns="http://www.w3.org/2000/svg" viewBox="0 0 579.66 502"><defs><style>.cls-1{fill:#dee5e1;}</style></defs><title>exp</title><polygon class="cls-1" points="434.75 0 144.91 0 0 251 144.91 502 434.75 502 579.66 251 434.75 0"/><g id="Layer_1" data-name="Layer 1"><path d="M399.42,294.86,296.35,308.61V606.16L399.5,578.65l102.68,25.67,103.47-13.8V294L502.52,307.75Zm6.47,13.8,90.22,11.28V589.52L405.89,567Zm-96.65,11.22L393,308.72V567.05l-83.77,22.33ZM592.76,579.24,509,590.41V319.88l83.77-11.16Z" transform="translate(-161.17 -199)"/><rect x="360.71" y="179.68" width="12.89" height="12.89"/><rect x="386.49" y="199.01" width="12.89" height="12.89"/><rect x="386.49" y="231.23" width="12.89" height="12.89"/><rect x="386.49" y="263.45" width="12.89" height="12.89"/><rect x="360.71" y="282.78" width="12.89" height="12.89"/><rect x="302.72" y="289.23" width="12.89" height="12.89"/><rect x="270.5" y="295.67" width="12.89" height="12.89"/><rect x="206.06" y="321.45" width="12.89" height="12.89"/><polygon points="188.62 271.78 177.06 283.34 165.51 271.78 156.4 280.89 167.95 292.45 156.4 304 165.51 313.11 177.06 301.56 188.62 313.11 197.73 304 186.18 292.45 197.73 280.89 188.62 271.78"/><polygon points="307.27 175.13 295.72 163.57 307.27 152.02 298.16 142.91 286.61 154.46 275.05 142.91 265.94 152.02 277.5 163.57 265.94 175.13 275.05 184.24 286.61 172.69 298.16 184.24 307.27 175.13"/></g></svg>